<?xml version="1.0" encoding="utf-8"?>
<!-- Generator: Adobe Illustrator 19.0.0, SVG Export Plug-In . SVG Version: 6.00 Build 0)  -->
<svg version="1.1" id="layer" xmlns="http://www.w3.org/2000/svg" xmlns:xlink="http://www.w3.org/1999/xlink" x="0px" y="0px"
	 viewBox="-153 -46 652 652" style="enable-background:new -153 -46 652 652;" xml:space="preserve">
<style type="text/css">
	.st0{fill:#00448A;}
</style>
<path class="st0" d="M-126.4,306.2l13.2-15.8c9.1,7.5,18.7,12.3,30.3,12.3c9.1,0,14.7-3.6,14.7-9.6v-0.3c0-5.7-3.5-8.6-20.5-12.9
	c-20.5-5.2-33.7-10.9-33.7-31.1v-0.3c0-18.4,14.8-30.6,35.6-30.6c14.8,0,27.4,4.6,37.7,12.9l-11.6,16.8c-9-6.2-17.9-10-26.4-10
	c-8.6,0-13.1,3.9-13.1,8.9v0.3c0,6.7,4.4,8.9,21.9,13.4C-57.6,265.6-46,273-46,290.7v0.3c0,20.2-15.4,31.5-37.3,31.5
	C-98.7,322.5-114.2,317.1-126.4,306.2 M-35.6,282.6c0,22.3,17.9,40.2,41.9,40.2c24.2,0,42.2-18.1,42.2-40.5V282
	c0-22.4-17.9-40.2-41.9-40.2c-24.2,0-42.2,18.1-42.2,40.5V282.6 M26.8,282.6c0,11.5-7.5,21.2-20.2,21.2c-12.2,0-20.5-10-20.5-21.5
	V282c0-11.5,7.5-21.2,20.2-21.2c12.2,0,20.5,10,20.5,21.5V282.6 M62.1,336.4c9.9,5.2,21.8,8.1,34.4,8.1c15.1,0,26.3-3.2,33.5-10.5
	c6.5-6.5,9.9-16.7,9.9-30.6v-60.2h-22.1v10.2c-6-6.5-13.1-11.6-25.1-11.6c-17.9,0-34.5,13.1-34.5,36.3v0.3
	c0,23.1,16.4,36.3,34.5,36.3c11.8,0,18.9-4.8,25.4-12.6v3.8c0,13.9-7.1,21.2-22.2,21.2c-10.3,0-18.3-2.6-26.3-7.1L62.1,336.4
	 M118.1,278.4c0,10.6-8.3,18-19,18c-10.7,0-18.9-7.3-18.9-18v-0.3c0-10.6,8.1-18,18.9-18c10.7,0,19,7.4,19,18V278.4 M153,282.6
	c0,23.8,17.3,40.2,40.6,40.2c14.1,0,24.5-5.5,31.8-14.5l-12.6-11.2c-6.1,5.7-11.5,8-18.9,8c-9.9,0-16.8-5.2-19-15.2H229
	c0.1-2,0.3-4.1,0.3-5.8c0-22.1-11.9-42.2-37.9-42.2c-22.6,0-38.5,18.3-38.5,40.5V282.6 M174.6,276c1.7-10,7.7-16.5,16.8-16.5
	c9.3,0,15.1,6.7,16.4,16.5H174.6z M249.3,299c0,18,9.1,23.4,22.6,23.4c7.4,0,12.8-1.7,17.4-4.5v-17.7c-3.2,1.7-6.8,2.8-10.9,2.8
	c-4.9,0-7.1-2.5-7.1-7.5v-33.2h18.3v-18.9h-18.3v-19.9h-22.1v19.9H240v18.9h9.3V299 M308.8,321h22.1v-28.7c0-18.6,9-27.4,23.7-27.4
	h1.2v-23.1c-13.1-0.6-20.3,6.4-24.8,17.1v-15.7h-22.1V321z M360.7,282.6c0,23.8,17.3,40.2,40.6,40.2c14.1,0,24.5-5.5,31.8-14.5
	l-12.6-11.2c-6.1,5.7-11.5,8-18.9,8c-9.9,0-16.8-5.2-19-15.2h54.1c0.1-2,0.3-4.1,0.3-5.8c0-22.1-11.9-42.2-37.9-42.2
	c-22.6,0-38.5,18.3-38.5,40.5V282.6 M382.3,276c1.7-10,7.7-16.5,16.8-16.5c9.3,0,15.1,6.7,16.4,16.5H382.3z M451.5,321h22.1V215.1
	h-22.1V321z"/>
</svg>
